<svg width="30" height="40" viewBox="0 0 30 40" fill="none" xmlns="http://www.w3.org/2000/svg">
<path d="M15 0.5C11.0695 0.5 7.29997 2.06139 4.52068 4.84068C1.74139 7.61997 0.18 11.3895 0.18 15.32V15.32V16.4C0.78 24.52 7.52 31.05 15 39.5C22.81 30.68 29.82 24 29.82 15.32C29.82 11.3895 28.2586 7.61997 25.4793 4.84068C22.7 2.06139 18.9305 0.5 15 0.5ZM15 8.2C16.4106 8.2 17.7895 8.61842 18.9623 9.40232C20.135 10.1862 21.0489 11.3004 21.5882 12.6038C22.1276 13.9072 22.2682 15.3413 21.9923 16.7247C21.7163 18.108 21.0363 19.3785 20.0381 20.3752C19.04 21.372 17.7686 22.0502 16.3849 22.3242C15.0011 22.5982 13.5672 22.4556 12.2645 21.9144C10.9619 21.3732 9.84901 20.4578 9.06676 19.2839C8.28451 18.1101 7.86802 16.7306 7.87 15.32C7.87265 13.4307 8.62501 11.6198 9.96186 10.2848C11.2987 8.94982 13.1107 8.2 15 8.2Z" fill="#999999"/>
</svg>
