<svg width="16" height="10" viewBox="0 0 16 10" fill="none" xmlns="http://www.w3.org/2000/svg">
<path d="M4 1.8501V2.7501H5V1.8501H4ZM11 1.8501V2.7501H12V1.8501H11ZM4 3.6501V4.5501H5V3.6501H4ZM11 3.6501V4.5501H12V3.6501H11ZM4 5.4501V6.3501H5V5.4501H4ZM11 5.4501V6.3501H12V5.4501H11ZM4 7.2501V8.1501H5V7.2501H4ZM11 7.2501V8.1501H12V7.2501H11Z" fill="black"/>
<path d="M1.5 0C1.10218 0 0.720644 0.158035 0.43934 0.43934C0.158035 0.720644 0 1.10218 0 1.5L0 3C0 3.13261 0.0526784 3.25979 0.146447 3.35355C0.240215 3.44732 0.367392 3.5 0.5 3.5C0.897825 3.5 1.27936 3.65804 1.56066 3.93934C1.84196 4.22064 2 4.60218 2 5C2 5.39782 1.84196 5.77936 1.56066 6.06066C1.27936 6.34196 0.897825 6.5 0.5 6.5C0.367392 6.5 0.240215 6.55268 0.146447 6.64645C0.0526784 6.74021 0 6.86739 0 7L0 8.5C0 8.89782 0.158035 9.27936 0.43934 9.56066C0.720644 9.84196 1.10218 10 1.5 10H14.5C14.8978 10 15.2794 9.84196 15.5607 9.56066C15.842 9.27936 16 8.89782 16 8.5V7C16 6.86739 15.9473 6.74021 15.8536 6.64645C15.7598 6.55268 15.6326 6.5 15.5 6.5C15.1022 6.5 14.7206 6.34196 14.4393 6.06066C14.158 5.77936 14 5.39782 14 5C14 4.60218 14.158 4.22064 14.4393 3.93934C14.7206 3.65804 15.1022 3.5 15.5 3.5C15.6326 3.5 15.7598 3.44732 15.8536 3.35355C15.9473 3.25979 16 3.13261 16 3V1.5C16 1.10218 15.842 0.720644 15.5607 0.43934C15.2794 0.158035 14.8978 0 14.5 0H1.5ZM1 1.5C1 1.36739 1.05268 1.24021 1.14645 1.14645C1.24021 1.05268 1.36739 1 1.5 1H14.5C14.6326 1 14.7598 1.05268 14.8536 1.14645C14.9473 1.24021 15 1.36739 15 1.5V2.55C14.4349 2.66476 13.9268 2.97136 13.5618 3.41787C13.1969 3.86438 12.9975 4.42332 12.9975 5C12.9975 5.57668 13.1969 6.13562 13.5618 6.58213C13.9268 7.02864 14.4349 7.33524 15 7.45V8.5C15 8.63261 14.9473 8.75979 14.8536 8.85355C14.7598 8.94732 14.6326 9 14.5 9H1.5C1.36739 9 1.24021 8.94732 1.14645 8.85355C1.05268 8.75979 1 8.63261 1 8.5V7.45C1.56514 7.33524 2.07324 7.02864 2.43819 6.58213C2.80314 6.13562 3.00251 5.57668 3.00251 5C3.00251 4.42332 2.80314 3.86438 2.43819 3.41787C2.07324 2.97136 1.56514 2.66476 1 2.55V1.5Z" fill="black"/>
</svg>
